<svg id="_003-communications" data-name="003-communications" xmlns="http://www.w3.org/2000/svg" width="92" height="92" viewBox="0 0 92 92">
  <path id="Path_705" data-name="Path 705" d="M59.875,88.953a29.605,29.605,0,0,0-58.973,0l1.779,2.7L.9,94.344a29.605,29.605,0,0,0,58.973,0l-2.533-2.7Zm0,0" transform="translate(-0.74 -50.859)" fill="#beebfa"/>
  <path id="Path_706" data-name="Path 706" d="M191.953,91.648l2.533,2.7A29.651,29.651,0,0,1,165,121.3V62a29.651,29.651,0,0,1,29.486,26.953Zm0,0" transform="translate(-135.351 -50.859)" fill="#7ed8f6"/>
  <path id="Path_707" data-name="Path 707" d="M78.516,116.258A24.258,24.258,0,1,1,54.258,92,24.295,24.295,0,0,1,78.516,116.258Zm0,0" transform="translate(-24.609 -75.469)" fill="#5696e5"/>
  <path id="Path_708" data-name="Path 708" d="M189.258,116.258A24.3,24.3,0,0,1,165,140.516V92A24.3,24.3,0,0,1,189.258,116.258Zm0,0" transform="translate(-135.352 -75.469)" fill="#1862bf"/>
  <path id="Path_709" data-name="Path 709" d="M59.135,88.953H43.071C42.532,75.423,37.843,62,29.649,62S16.765,75.423,16.226,88.953H.163a22.484,22.484,0,0,0,0,5.391H16.226c.539,13.531,5.228,26.953,13.423,26.953s12.883-13.423,13.423-26.953H59.135a22.484,22.484,0,0,0,0-5.391ZM29.649,115.906c-3.073,0-7.493-8.3-8.032-21.562H37.681C37.142,107.6,32.722,115.906,29.649,115.906ZM21.617,88.953c.539-13.261,4.959-21.562,8.032-21.562s7.493,8.3,8.032,21.563Zm0,0" transform="translate(0 -50.859)" fill="#beebfa"/>
  <path id="Path_710" data-name="Path 710" d="M194.648,91.648a21.884,21.884,0,0,1-.162,2.7H178.423C177.883,107.874,173.194,121.3,165,121.3v-5.391c3.073,0,7.493-8.3,8.032-21.562H165V88.953h8.032c-.539-13.261-4.959-21.562-8.032-21.562V62c8.194,0,12.883,13.423,13.423,26.953h16.064A21.884,21.884,0,0,1,194.648,91.648Zm0,0" transform="translate(-135.352 -50.859)" fill="#7ed8f6"/>
  <path id="Path_711" data-name="Path 711" d="M208.3,152H167.7a2.694,2.694,0,0,0-2.7,2.7v21.563a2.694,2.694,0,0,0,2.7,2.7h34.45L208.3,177.6a2.694,2.694,0,0,0,2.7-2.7V154.7a2.694,2.694,0,0,0-2.7-2.7Zm0,0" transform="translate(-135.352 -124.688)" fill="#fdbf00"/>
  <g id="Group_1965" data-name="Group 1965" transform="translate(37.914 38.094)">
    <path id="Path_712" data-name="Path 712" d="M216.391,214.7a2.7,2.7,0,1,1-2.7-2.7A2.7,2.7,0,0,1,216.391,214.7Zm0,0" transform="translate(-211 -212)" fill="#07485e"/>
    <path id="Path_713" data-name="Path 713" d="M276.391,214.7a2.7,2.7,0,1,1-2.7-2.7A2.7,2.7,0,0,1,276.391,214.7Zm0,0" transform="translate(-260.219 -212)" fill="#07485e"/>
    <path id="Path_714" data-name="Path 714" d="M336.391,214.7a2.7,2.7,0,1,1-2.7-2.7A2.7,2.7,0,0,1,336.391,214.7Zm0,0" transform="translate(-309.438 -212)" fill="#07485e"/>
  </g>
  <path id="Path_715" data-name="Path 715" d="M2.7,16.172a2.694,2.694,0,0,1-2.7-2.7V2.7A2.694,2.694,0,0,1,2.7,0H13.477a2.7,2.7,0,0,1,0,5.391H5.391v8.086A2.694,2.694,0,0,1,2.7,16.172Zm0,0" fill="#0b799d"/>
  <path id="Path_716" data-name="Path 716" d="M435.477,16.172a2.694,2.694,0,0,1-2.7-2.7V5.391H424.7A2.7,2.7,0,0,1,424.7,0h10.781a2.694,2.694,0,0,1,2.7,2.7V13.477A2.694,2.694,0,0,1,435.477,16.172Zm0,0" transform="translate(-346.172)" fill="#07485e"/>
  <path id="Path_717" data-name="Path 717" d="M13.477,438.172H2.7a2.694,2.694,0,0,1-2.7-2.7V424.7a2.7,2.7,0,0,1,5.391,0v8.086h8.086a2.7,2.7,0,0,1,0,5.391Zm0,0" transform="translate(0 -346.172)" fill="#0b799d"/>
  <path id="Path_718" data-name="Path 718" d="M435.477,438.172H424.7a2.7,2.7,0,0,1,0-5.391h8.086V424.7a2.7,2.7,0,0,1,5.391,0v10.781A2.694,2.694,0,0,1,435.477,438.172Zm0,0" transform="translate(-346.172 -346.172)" fill="#07485e"/>
  <path id="Path_719" data-name="Path 719" d="M369.941,284.662l-5.9-5.9-1.906,1.906a2.694,2.694,0,0,1-4.548-1.376l-3.811-19.059a2.7,2.7,0,0,1,3.171-3.172l19.059,3.811a2.695,2.695,0,0,1,1.376,4.548l-1.906,1.906,5.9,5.9a2.694,2.694,0,0,1,0,3.811l-7.623,7.623a2.694,2.694,0,0,1-3.811,0Zm0,0" transform="translate(-290.164 -210.831)" fill="#07485e"/>
</svg>
